<svg xmlns="http://www.w3.org/2000/svg" style="isolation:isolate" width="560" height="100"><defs><clipPath id="_clipPath_6XgMQP7d4BxYQ5lv5eCRgp1w4AMjZWic"><path d="M0 0h560v100H0z"/></clipPath></defs><g clip-path="url(#_clipPath_6XgMQP7d4BxYQ5lv5eCRgp1w4AMjZWic)"><path d="M88 45.842C88 63.105 100.495 77 121.284 77c14.594 0 26.144-7.474 34.649-18.947l-5.775-4.316c-7.56 9.052-15.54 15.895-27.719 15.895-11.76 0-19.32-8-19.32-23.369 0-12.316 7.35-36.421 25.619-36.421 11.76 0 18.69 9.263 22.575 19.474l6.404-1.053-4.304-24.316h-4.935l-2.31 3.264c-5.565-2.948-11.13-4.632-17.43-4.632C103.644 2.579 88 26.789 88 45.842zm77.802 29.79h5.145l2.52-4.737C179.452 75.211 186.171 77 193.206 77c15.435 0 30.974-10 30.974-26.526 0-24.211-41.368-15.053-41.368-29.79 0-6 5.249-10.737 12.809-10.737 11.13 0 17.639 5.79 21.734 15.895l6.51-1.053-3.99-20.842h-4.935L213.155 7c-5.459-2.632-12.494-4.421-18.689-4.421-12.704 0-26.144 9.263-26.144 23.053 0 12.421 11.97 15.684 24.254 18.631 12.915 3.053 17.115 4.421 17.115 11.79 0 8.526-9.24 12.947-16.17 12.947-13.124 0-20.999-9.368-24.884-21.263l-6.72 1.052 3.885 26.843zm70.033 0h5.144l2.52-4.737c5.985 4.316 12.705 6.105 19.74 6.105 15.434 0 30.973-10 30.973-26.526 0-24.211-41.368-15.053-41.368-29.79 0-6 5.25-10.737 12.809-10.737 11.13 0 17.64 5.79 21.735 15.895l6.509-1.053-3.989-20.842h-4.935L283.188 7c-5.46-2.632-12.495-4.421-18.689-4.421-12.705 0-26.145 9.263-26.145 23.053 0 12.421 11.97 15.684 24.255 18.631 12.914 3.053 17.114 4.421 17.114 11.79 0 8.526-9.24 12.947-16.169 12.947-13.125 0-21-9.368-24.885-21.263l-6.719 1.052 3.885 26.843zm66.877-6.421c0 4.421 2.415 7.052 6.825 7.052 5.46 0 9.134-4.421 9.134-9.684 0-4.105-2.729-6.947-6.824-6.947-5.04 0-9.135 4.526-9.135 9.579zm23.302-23.369c0 17.263 12.494 31.158 33.283 31.158 14.595 0 26.144-7.474 34.649-18.947l-5.775-4.316c-7.559 9.052-15.539 15.895-27.719 15.895-11.759 0-19.319-8-19.319-23.369 0-12.316 7.35-36.421 25.619-36.421 11.76 0 18.689 9.263 22.574 19.474l6.405-1.053-4.305-24.316h-4.935l-2.31 3.264c-5.564-2.948-11.129-4.632-17.429-4.632-25.094 0-40.738 24.21-40.738 43.263zm133.345-21.789h-12.075l-1.155 4.21C441.509 24.158 436.26 23 430.17 23c-16.38 0-29.294 15.158-29.294 32.947 0 9.79 5.985 20.737 21.104 20.737 7.035 0 13.965-3.579 18.164-9.158 2.31 5.895 5.775 9.158 12.39 9.158 6.825 0 10.71-2.526 15.854-6.947l-3.465-4.316c-2.309 1.579-3.989 2.632-6.929 2.632-3.57 0-5.04-2.632-5.04-5.895 0-.421 0-1.79.315-3.579l6.09-34.526zm-44.624 32c0-12.948 7.98-25.685 18.375-25.685 6.929 0 11.444 5.158 11.444 5.579 0 .842-2.52 14.106-4.305 19.053-2.52 6.842-6.089 14.316-14.279 14.316-7.245 0-11.235-4.948-11.235-13.263zm58.798-25.895h6.72l-3.885 32.316c-1.785 14.737-5.565 27.158-14.384 27.158-5.04 0-7.035-6.316-13.125-6.316-3.675 0-5.565 2.737-5.565 5.473 0 5.158 4.62 8.211 12.6 8.211 15.959 0 29.609-12.842 32.759-36.842l3.989-30h9.765l.735-6.105h-9.555c.21-4.106 1.05-16.316 6.51-16.316 3.57 0 3.255 6.105 9.345 6.105 3.99 0 5.46-2.842 5.46-5.263 0-4.316-4.41-7.579-11.97-7.579-13.859 0-20.054 9.789-21.734 23.053h-7.035l-.63 6.105zm32.339 25.895c0 14.105 11.235 20.631 23.309 20.631 10.395 0 18.899-4.631 26.669-11.158l-3.78-5.158c-4.935 3.579-11.654 8.316-18.479 8.316-11.025 0-13.23-8.526-13.23-12.947v-3.263c8.4-.211 16.905-.316 24.884-3.053C552.175 47.105 559 42.579 559 35.105 559 27.737 552.805 23 540.206 23c-21.42 0-34.334 17.789-34.334 33.053zm40.738-20.842c0 9.789-14.594 10.947-25.094 11.789 1.575-7.474 8.82-17.895 17.22-17.895 2.205 0 7.874.632 7.874 6.106z" fill-rule="evenodd" fill="#F5F5F5"/><g id="Group" stroke-miterlimit="10"><path d="M43.609 38.478h24.348A3.045 3.045 0 0 1 71 41.522V65.87a3.045 3.045 0 0 1-3.043 3.043H43.609a3.045 3.045 0 0 1-3.044-3.043V41.522a3.045 3.045 0 0 1 3.044-3.044z" fill="#4ed460"/><path d="M10.13 44.565h24.348a3.045 3.045 0 0 1 3.044 3.044v24.348A3.045 3.045 0 0 1 34.478 75H10.13a3.045 3.045 0 0 1-3.043-3.043V47.609a3.045 3.045 0 0 1 3.043-3.044z" fill="#0375f8"/><path d="M37.522 5H61.87a3.045 3.045 0 0 1 3.043 3.043v24.348a3.045 3.045 0 0 1-3.043 3.044H37.522a3.045 3.045 0 0 1-3.044-3.044V8.043A3.045 3.045 0 0 1 37.522 5z" fill="#fdc704"/><path d="M4.043 11.087h24.348a3.045 3.045 0 0 1 3.044 3.043v24.348a3.045 3.045 0 0 1-3.044 3.044H4.043A3.045 3.045 0 0 1 1 38.478V14.13a3.045 3.045 0 0 1 3.043-3.043z" fill="#f92c52"/></g></g></svg>