<svg xmlns="http://www.w3.org/2000/svg" style="isolation:isolate" width="256" height="256"><defs><clipPath id="_clipPath_9OlGkCzCcELy2qtEt00vT98hjtwLQQ8H"><path d="M0 0h256v256H0z"/></clipPath></defs><g clip-path="url(#_clipPath_9OlGkCzCcELy2qtEt00vT98hjtwLQQ8H)"><g id="Group"><g id="Group" stroke-miterlimit="10"><path d="M155.826 122.435h89.044c6.143 0 11.13 4.987 11.13 11.13v89.044c0 6.143-4.987 11.13-11.13 11.13h-89.044c-6.143 0-11.13-4.987-11.13-11.13v-89.044c0-6.143 4.987-11.13 11.13-11.13z" fill="#4ed460"/><path d="M33.391 144.696h89.044c6.143 0 11.13 4.987 11.13 11.13v89.044c0 6.143-4.987 11.13-11.13 11.13H33.391c-6.143 0-11.13-4.987-11.13-11.13v-89.044c0-6.143 4.987-11.13 11.13-11.13z" fill="#0375f8"/><path d="M133.565 0h89.044c6.143 0 11.13 4.987 11.13 11.13v89.044c0 6.143-4.987 11.13-11.13 11.13h-89.044c-6.143 0-11.13-4.987-11.13-11.13V11.13c0-6.143 4.987-11.13 11.13-11.13z" fill="#fdc704"/><path d="M11.13 22.261h89.044c6.143 0 11.13 4.987 11.13 11.13v89.044c0 6.143-4.987 11.13-11.13 11.13H11.13c-6.143 0-11.13-4.987-11.13-11.13V33.391c0-6.143 4.987-11.13 11.13-11.13z" fill="#f92c52"/></g></g></g></svg>