<?xml version="1.0" standalone="no"?><!-- Generator: Gravit.io --><svg xmlns="http://www.w3.org/2000/svg" xmlns:xlink="http://www.w3.org/1999/xlink" style="isolation:isolate" viewBox="0 0 560 100" width="560" height="100"><defs><clipPath id="_clipPath_6XgMQP7d4BxYQ5lv5eCRgp1w4AMjZWic"><rect width="560" height="100"/></clipPath></defs><g clip-path="url(#_clipPath_6XgMQP7d4BxYQ5lv5eCRgp1w4AMjZWic)"><path d=" M 88 45.842 C 88 63.105 100.495 77 121.284 77 C 135.878 77 147.428 69.526 155.933 58.053 L 150.158 53.737 C 142.598 62.789 134.618 69.632 122.439 69.632 C 110.679 69.632 103.119 61.632 103.119 46.263 C 103.119 33.947 110.469 9.842 128.738 9.842 C 140.498 9.842 147.428 19.105 151.313 29.316 L 157.717 28.263 L 153.413 3.947 L 148.478 3.947 L 146.168 7.211 C 140.603 4.263 135.038 2.579 128.738 2.579 C 103.644 2.579 88 26.789 88 45.842 Z  M 165.802 75.632 L 170.947 75.632 L 173.467 70.895 C 179.452 75.211 186.171 77 193.206 77 C 208.641 77 224.18 67 224.18 50.474 C 224.18 26.263 182.812 35.421 182.812 20.684 C 182.812 14.684 188.061 9.947 195.621 9.947 C 206.751 9.947 213.26 15.737 217.355 25.842 L 223.865 24.789 L 219.875 3.947 L 214.94 3.947 L 213.155 7 C 207.696 4.368 200.661 2.579 194.466 2.579 C 181.762 2.579 168.322 11.842 168.322 25.632 C 168.322 38.053 180.292 41.316 192.576 44.263 C 205.491 47.316 209.691 48.684 209.691 56.053 C 209.691 64.579 200.451 69 193.521 69 C 180.397 69 172.522 59.632 168.637 47.737 L 161.917 48.789 L 165.802 75.632 Z  M 235.835 75.632 L 240.979 75.632 L 243.499 70.895 C 249.484 75.211 256.204 77 263.239 77 C 278.673 77 294.212 67 294.212 50.474 C 294.212 26.263 252.844 35.421 252.844 20.684 C 252.844 14.684 258.094 9.947 265.653 9.947 C 276.783 9.947 283.293 15.737 287.388 25.842 L 293.897 24.789 L 289.908 3.947 L 284.973 3.947 L 283.188 7 C 277.728 4.368 270.693 2.579 264.499 2.579 C 251.794 2.579 238.354 11.842 238.354 25.632 C 238.354 38.053 250.324 41.316 262.609 44.263 C 275.523 47.316 279.723 48.684 279.723 56.053 C 279.723 64.579 270.483 69 263.554 69 C 250.429 69 242.554 59.632 238.669 47.737 L 231.95 48.789 L 235.835 75.632 Z  M 302.712 69.211 C 302.712 73.632 305.127 76.263 309.537 76.263 C 314.997 76.263 318.671 71.842 318.671 66.579 C 318.671 62.474 315.942 59.632 311.847 59.632 C 306.807 59.632 302.712 64.158 302.712 69.211 Z  M 326.014 45.842 C 326.014 63.105 338.508 77 359.297 77 C 373.892 77 385.441 69.526 393.946 58.053 L 388.171 53.737 C 380.612 62.789 372.632 69.632 360.452 69.632 C 348.693 69.632 341.133 61.632 341.133 46.263 C 341.133 33.947 348.483 9.842 366.752 9.842 C 378.512 9.842 385.441 19.105 389.326 29.316 L 395.731 28.263 L 391.426 3.947 L 386.491 3.947 L 384.181 7.211 C 378.617 4.263 373.052 2.579 366.752 2.579 C 341.658 2.579 326.014 26.789 326.014 45.842 Z  M 459.359 24.053 L 447.284 24.053 L 446.129 28.263 C 441.509 24.158 436.26 23 430.17 23 C 413.79 23 400.876 38.158 400.876 55.947 C 400.876 65.737 406.861 76.684 421.98 76.684 C 429.015 76.684 435.945 73.105 440.144 67.526 C 442.454 73.421 445.919 76.684 452.534 76.684 C 459.359 76.684 463.244 74.158 468.388 69.737 L 464.923 65.421 C 462.614 67 460.934 68.053 457.994 68.053 C 454.424 68.053 452.954 65.421 452.954 62.158 C 452.954 61.737 452.954 60.368 453.269 58.579 L 459.359 24.053 Z  M 414.735 56.053 C 414.735 43.105 422.715 30.368 433.11 30.368 C 440.039 30.368 444.554 35.526 444.554 35.947 C 444.554 36.789 442.034 50.053 440.249 55 C 437.729 61.842 434.16 69.316 425.97 69.316 C 418.725 69.316 414.735 64.368 414.735 56.053 Z  M 473.533 30.158 L 480.253 30.158 L 476.368 62.474 C 474.583 77.211 470.803 89.632 461.984 89.632 C 456.944 89.632 454.949 83.316 448.859 83.316 C 445.184 83.316 443.294 86.053 443.294 88.789 C 443.294 93.947 447.914 97 455.894 97 C 471.853 97 485.503 84.158 488.653 60.158 L 492.642 30.158 L 502.407 30.158 L 503.142 24.053 L 493.587 24.053 C 493.797 19.947 494.637 7.737 500.097 7.737 C 503.667 7.737 503.352 13.842 509.442 13.842 C 513.432 13.842 514.902 11 514.902 8.579 C 514.902 4.263 510.492 1 502.932 1 C 489.073 1 482.878 10.789 481.198 24.053 L 474.163 24.053 L 473.533 30.158 Z  M 505.872 56.053 C 505.872 70.158 517.107 76.684 529.181 76.684 C 539.576 76.684 548.08 72.053 555.85 65.526 L 552.07 60.368 C 547.135 63.947 540.416 68.684 533.591 68.684 C 522.566 68.684 520.361 60.158 520.361 55.737 L 520.361 52.474 C 528.761 52.263 537.266 52.158 545.245 49.421 C 552.175 47.105 559 42.579 559 35.105 C 559 27.737 552.805 23 540.206 23 C 518.786 23 505.872 40.789 505.872 56.053 Z  M 546.61 35.211 C 546.61 45 532.016 46.158 521.516 47 C 523.091 39.526 530.336 29.105 538.736 29.105 C 540.941 29.105 546.61 29.737 546.61 35.211 Z " fill-rule="evenodd" fill="rgb(245,245,245)"/><g id="Group"><path d="M 43.609 38.478 L 67.957 38.478 C 69.636 38.478 71 39.842 71 41.522 L 71 65.87 C 71 67.549 69.636 68.913 67.957 68.913 L 43.609 68.913 C 41.929 68.913 40.565 67.549 40.565 65.87 L 40.565 41.522 C 40.565 39.842 41.929 38.478 43.609 38.478 Z" style="stroke:none;fill:#4ED460;stroke-miterlimit:10;"/><path d="M 10.13 44.565 L 34.478 44.565 C 36.158 44.565 37.522 45.929 37.522 47.609 L 37.522 71.957 C 37.522 73.636 36.158 75 34.478 75 L 10.13 75 C 8.451 75 7.087 73.636 7.087 71.957 L 7.087 47.609 C 7.087 45.929 8.451 44.565 10.13 44.565 Z" style="stroke:none;fill:#0375F8;stroke-miterlimit:10;"/><path d="M 37.522 5 L 61.87 5 C 63.549 5 64.913 6.364 64.913 8.043 L 64.913 32.391 C 64.913 34.071 63.549 35.435 61.87 35.435 L 37.522 35.435 C 35.842 35.435 34.478 34.071 34.478 32.391 L 34.478 8.043 C 34.478 6.364 35.842 5 37.522 5 Z" style="stroke:none;fill:#FDC704;stroke-miterlimit:10;"/><path d="M 4.043 11.087 L 28.391 11.087 C 30.071 11.087 31.435 12.451 31.435 14.13 L 31.435 38.478 C 31.435 40.158 30.071 41.522 28.391 41.522 L 4.043 41.522 C 2.364 41.522 1 40.158 1 38.478 L 1 14.13 C 1 12.451 2.364 11.087 4.043 11.087 Z" style="stroke:none;fill:#F92C52;stroke-miterlimit:10;"/></g></g></svg>